<?xml version="1.0" standalone="no"?>
<!DOCTYPE svg PUBLIC "-//W3C//DTD SVG 20010904//EN"
 "http://www.w3.org/TR/2001/REC-SVG-20010904/DTD/svg10.dtd">
<svg version="1.0" xmlns="http://www.w3.org/2000/svg"
 width="236.000000pt" height="81.000000pt" viewBox="0 0 236.000000 81.000000"
 preserveAspectRatio="xMidYMid meet">

<g transform="translate(0.000000,81.000000) scale(0.100000,-0.100000)"
fill="#000000" stroke="none">
<path d="M1370 420 c0 -103 1 -110 20 -110 11 0 20 5 20 12 0 9 3 9 12 0 21
-21 65 -14 87 14 52 67 -10 172 -76 128 -23 -14 -23 -14 -23 26 0 33 -3 40
-20 40 -19 0 -20 -7 -20 -110z m114 -2 c14 -23 -4 -72 -29 -76 -36 -7 -61 58
-33 86 17 17 48 11 62 -10z"/>
<path d="M249 471 c-26 -26 -29 -37 -29 -89 0 -67 15 -88 54 -78 22 5 24 12
28 75 2 47 9 76 21 89 24 26 21 32 -14 32 -20 0 -40 -10 -60 -29z"/>
<path d="M375 488 c-37 -20 -45 -40 -45 -110 0 -64 1 -68 25 -74 40 -10 55 11
55 77 0 60 21 99 53 99 8 0 7 4 -3 10 -20 13 -60 12 -85 -2z"/>
<path d="M712 464 c-12 -8 -22 -10 -22 -5 0 6 -7 11 -15 11 -12 0 -15 -16 -15
-80 0 -64 3 -80 15 -80 11 0 15 13 15 53 0 60 10 80 36 75 16 -3 20 -14 22
-66 3 -53 6 -62 22 -62 16 0 19 9 22 63 3 59 4 62 28 62 24 0 25 -3 28 -62 3
-55 6 -63 22 -63 17 0 20 7 19 53 -1 28 -4 63 -8 76 -8 31 -41 43 -73 27 -20
-11 -28 -11 -43 0 -24 17 -26 17 -53 -2z"/>
<path d="M962 465 c-33 -14 -42 -32 -42 -81 0 -65 72 -97 129 -58 21 15 22 18
7 26 -11 6 -22 6 -31 -2 -20 -16 -59 -8 -63 13 -3 14 5 17 52 17 52 0 56 2 56
23 0 55 -52 85 -108 62z m68 -45 c0 -6 -16 -10 -35 -10 -38 0 -46 13 -18 29
19 10 53 -2 53 -19z"/>
<path d="M1161 463 c-12 -8 -21 -10 -21 -4 0 6 -9 11 -20 11 -18 0 -20 -7 -20
-80 0 -73 2 -80 20 -80 16 0 19 8 22 63 3 59 4 62 28 62 24 0 25 -3 28 -62 3
-55 6 -63 22 -63 18 0 20 7 20 65 0 63 1 65 25 65 24 0 25 -2 25 -65 0 -58 2
-65 20 -65 18 0 20 7 20 70 0 63 -2 71 -25 86 -23 15 -27 15 -49 0 -14 -9 -27
-12 -30 -7 -11 16 -45 19 -65 4z"/>
<path d="M1605 470 c-33 -13 -48 -38 -48 -82 0 -50 28 -78 77 -78 43 0 76 24
59 41 -10 10 -16 10 -25 1 -22 -22 -78 -8 -78 20 0 4 27 8 61 8 l61 0 -7 28
c-12 49 -59 79 -100 62z m51 -34 c26 -19 14 -28 -32 -24 -36 3 -37 4 -20 21
21 21 27 21 52 3z"/>
<path d="M1802 471 c-7 -4 -24 -6 -38 -3 -24 4 -24 4 -24 -77 0 -74 2 -81 20
-81 16 0 19 8 22 63 3 56 5 62 26 65 14 2 22 10 22 23 0 21 -8 23 -28 10z"/>
<path d="M1920 470 c-8 -5 -25 -7 -37 -3 -22 5 -23 3 -23 -76 0 -74 2 -81 20
-81 16 0 19 8 22 63 3 56 5 62 26 65 14 2 22 10 22 23 0 21 -8 23 -30 9z"/>
<path d="M2015 470 c-12 -4 -27 -15 -34 -24 -11 -14 -11 -16 3 -16 10 0 26 5
37 11 15 7 24 7 35 -2 22 -18 17 -26 -22 -32 -44 -7 -64 -23 -64 -51 0 -29 18
-46 50 -46 14 0 31 5 38 12 9 9 12 9 12 0 0 -7 9 -12 20 -12 18 0 20 7 20 63
0 48 -4 68 -17 79 -24 21 -54 28 -78 18z m55 -100 c0 -26 -36 -46 -55 -30 -20
16 -8 38 23 43 15 2 28 5 30 6 1 0 2 -8 2 -19z"/>
<path d="M441 441 c-15 -27 -14 -114 1 -129 7 -7 22 -12 35 -12 32 0 46 40 36
104 -7 45 -11 51 -35 54 -18 2 -30 -3 -37 -17z"/>
</g>
</svg>
